<mxfile host="Electron" modified="2023-11-22T04:14:51.647Z" agent="Mozilla/5.0 (Windows NT 10.0; Win64; x64) AppleWebKit/537.36 (KHTML, like Gecko) draw.io/22.1.2 Chrome/114.0.5735.289 Electron/25.9.4 Safari/537.36" etag="jZ0tEWuThLnKFR1bgqHI" version="22.1.2" type="device">
  <diagram name="Page" id="z6iWdsMWru9Ucd2KQlUm">
    <mxGraphModel dx="2268" dy="828" grid="1" gridSize="10" guides="1" tooltips="1" connect="1" arrows="1" fold="1" page="1" pageScale="1" pageWidth="850" pageHeight="1100" math="0" shadow="0">
      <root>
        <mxCell id="0" />
        <mxCell id="1" parent="0" />
        <mxCell id="yEuS01cdQiujWkr5JIMt-1" value="discord_accounts" style="text;html=1;strokeColor=none;fillColor=none;align=center;verticalAlign=middle;whiteSpace=wrap;rounded=0;" parent="1" vertex="1">
          <mxGeometry x="260" y="430" width="110" height="30" as="geometry" />
        </mxCell>
        <mxCell id="yEuS01cdQiujWkr5JIMt-2" value="discordId" style="text;html=1;strokeColor=default;fillColor=none;align=center;verticalAlign=middle;whiteSpace=wrap;rounded=0;" parent="1" vertex="1">
          <mxGeometry x="560" y="640" width="60" height="30" as="geometry" />
        </mxCell>
        <mxCell id="yEuS01cdQiujWkr5JIMt-5" value="duration" style="text;html=1;strokeColor=default;fillColor=none;align=center;verticalAlign=middle;whiteSpace=wrap;rounded=0;" parent="1" vertex="1">
          <mxGeometry x="740" y="640" width="60" height="30" as="geometry" />
        </mxCell>
        <mxCell id="yEuS01cdQiujWkr5JIMt-6" value="start" style="text;html=1;strokeColor=default;fillColor=none;align=center;verticalAlign=middle;whiteSpace=wrap;rounded=0;" parent="1" vertex="1">
          <mxGeometry x="680" y="640" width="60" height="30" as="geometry" />
        </mxCell>
        <mxCell id="yEuS01cdQiujWkr5JIMt-7" value="url" style="text;html=1;strokeColor=default;fillColor=none;align=center;verticalAlign=middle;whiteSpace=wrap;rounded=0;" parent="1" vertex="1">
          <mxGeometry x="620" y="640" width="60" height="30" as="geometry" />
        </mxCell>
        <mxCell id="yEuS01cdQiujWkr5JIMt-8" value="&lt;div&gt;toggle&lt;/div&gt;" style="text;html=1;strokeColor=default;fillColor=none;align=center;verticalAlign=middle;whiteSpace=wrap;rounded=0;" parent="1" vertex="1">
          <mxGeometry x="800" y="640" width="60" height="30" as="geometry" />
        </mxCell>
        <mxCell id="yEuS01cdQiujWkr5JIMt-9" value="PK" style="text;html=1;strokeColor=#d6b656;fillColor=#fff2cc;align=center;verticalAlign=middle;whiteSpace=wrap;rounded=0;" parent="1" vertex="1">
          <mxGeometry x="560" y="670" width="60" height="30" as="geometry" />
        </mxCell>
        <mxCell id="yEuS01cdQiujWkr5JIMt-17" value="ranks" style="text;html=1;strokeColor=none;fillColor=none;align=center;verticalAlign=middle;whiteSpace=wrap;rounded=0;" parent="1" vertex="1">
          <mxGeometry x="30" y="1000" width="60" height="30" as="geometry" />
        </mxCell>
        <mxCell id="yEuS01cdQiujWkr5JIMt-18" value="puuid" style="text;html=1;strokeColor=default;fillColor=none;align=center;verticalAlign=middle;whiteSpace=wrap;rounded=0;" parent="1" vertex="1">
          <mxGeometry x="150" y="1000" width="60" height="30" as="geometry" />
        </mxCell>
        <mxCell id="yEuS01cdQiujWkr5JIMt-19" value="tier" style="text;html=1;strokeColor=default;fillColor=none;align=center;verticalAlign=middle;whiteSpace=wrap;rounded=0;" parent="1" vertex="1">
          <mxGeometry x="270" y="1000" width="60" height="30" as="geometry" />
        </mxCell>
        <mxCell id="yEuS01cdQiujWkr5JIMt-20" value="queue" style="text;html=1;strokeColor=default;fillColor=none;align=center;verticalAlign=middle;whiteSpace=wrap;rounded=0;" parent="1" vertex="1">
          <mxGeometry x="90" y="1000" width="60" height="30" as="geometry" />
        </mxCell>
        <mxCell id="yEuS01cdQiujWkr5JIMt-22" value="tier_rank" style="text;html=1;strokeColor=default;fillColor=none;align=center;verticalAlign=middle;whiteSpace=wrap;rounded=0;" parent="1" vertex="1">
          <mxGeometry x="330" y="1000" width="70" height="30" as="geometry" />
        </mxCell>
        <mxCell id="yEuS01cdQiujWkr5JIMt-23" value="Primary Key" style="text;html=1;strokeColor=#d6b656;fillColor=#fff2cc;align=center;verticalAlign=middle;whiteSpace=wrap;rounded=0;" parent="1" vertex="1">
          <mxGeometry x="90" y="1030" width="120" height="30" as="geometry" />
        </mxCell>
        <mxCell id="yEuS01cdQiujWkr5JIMt-31" value="league_points" style="text;html=1;strokeColor=default;fillColor=none;align=center;verticalAlign=middle;whiteSpace=wrap;rounded=0;" parent="1" vertex="1">
          <mxGeometry x="400" y="1000" width="90" height="30" as="geometry" />
        </mxCell>
        <mxCell id="yEuS01cdQiujWkr5JIMt-32" value="FK" style="text;html=1;strokeColor=#6c8ebf;fillColor=#dae8fc;align=center;verticalAlign=middle;whiteSpace=wrap;rounded=0;" parent="1" vertex="1">
          <mxGeometry x="150" y="970" width="120" height="30" as="geometry" />
        </mxCell>
        <mxCell id="yEuS01cdQiujWkr5JIMt-35" value="riot_id" style="text;html=1;strokeColor=default;fillColor=none;align=center;verticalAlign=middle;whiteSpace=wrap;rounded=0;" parent="1" vertex="1">
          <mxGeometry x="330" y="640" width="60" height="30" as="geometry" />
        </mxCell>
        <mxCell id="yEuS01cdQiujWkr5JIMt-37" value="discord_id" style="text;html=1;strokeColor=default;fillColor=none;align=center;verticalAlign=middle;whiteSpace=wrap;rounded=0;" parent="1" vertex="1">
          <mxGeometry x="370" y="430" width="60" height="30" as="geometry" />
        </mxCell>
        <mxCell id="yEuS01cdQiujWkr5JIMt-38" value="outros" style="text;html=1;strokeColor=none;fillColor=none;align=center;verticalAlign=middle;whiteSpace=wrap;rounded=0;" parent="1" vertex="1">
          <mxGeometry x="510" y="640" width="50" height="30" as="geometry" />
        </mxCell>
        <mxCell id="yEuS01cdQiujWkr5JIMt-39" value="PK" style="text;html=1;strokeColor=#d6b656;fillColor=#fff2cc;align=center;verticalAlign=middle;whiteSpace=wrap;rounded=0;" parent="1" vertex="1">
          <mxGeometry x="370" y="460" width="60" height="30" as="geometry" />
        </mxCell>
        <mxCell id="yEuS01cdQiujWkr5JIMt-40" value="FK" style="text;html=1;strokeColor=#6c8ebf;fillColor=#dae8fc;align=center;verticalAlign=middle;whiteSpace=wrap;rounded=0;" parent="1" vertex="1">
          <mxGeometry x="560" y="610" width="60" height="30" as="geometry" />
        </mxCell>
        <mxCell id="yEuS01cdQiujWkr5JIMt-41" value="owns" style="endArrow=none;endFill=0;html=1;edgeStyle=orthogonalEdgeStyle;align=left;verticalAlign=top;rounded=0;exitX=0.5;exitY=1;exitDx=0;exitDy=0;entryX=0.5;entryY=0;entryDx=0;entryDy=0;" parent="1" source="yEuS01cdQiujWkr5JIMt-39" target="xnvNQHVsTAZZ_-OnzUZo-6" edge="1">
          <mxGeometry x="0.1389" y="-15" relative="1" as="geometry">
            <mxPoint x="340" y="570" as="sourcePoint" />
            <mxPoint x="310" y="610" as="targetPoint" />
            <mxPoint as="offset" />
          </mxGeometry>
        </mxCell>
        <mxCell id="yEuS01cdQiujWkr5JIMt-42" value="1..1" style="edgeLabel;resizable=0;html=1;align=left;verticalAlign=bottom;" parent="yEuS01cdQiujWkr5JIMt-41" connectable="0" vertex="1">
          <mxGeometry x="-1" relative="1" as="geometry">
            <mxPoint x="-20" y="20" as="offset" />
          </mxGeometry>
        </mxCell>
        <mxCell id="yEuS01cdQiujWkr5JIMt-43" value="has" style="endArrow=none;endFill=0;html=1;edgeStyle=orthogonalEdgeStyle;align=left;verticalAlign=top;rounded=0;entryX=0.5;entryY=0;entryDx=0;entryDy=0;exitX=0.5;exitY=1;exitDx=0;exitDy=0;" parent="1" source="qL5zQdkKpjcGRkti5oC4-3" target="yEuS01cdQiujWkr5JIMt-32" edge="1">
          <mxGeometry x="-0.3333" y="-10" relative="1" as="geometry">
            <mxPoint x="425" y="910" as="sourcePoint" />
            <mxPoint x="725" y="645" as="targetPoint" />
            <mxPoint as="offset" />
          </mxGeometry>
        </mxCell>
        <mxCell id="yEuS01cdQiujWkr5JIMt-44" value="1..1" style="edgeLabel;resizable=0;html=1;align=left;verticalAlign=bottom;" parent="yEuS01cdQiujWkr5JIMt-43" connectable="0" vertex="1">
          <mxGeometry x="-1" relative="1" as="geometry">
            <mxPoint x="-20" y="20" as="offset" />
          </mxGeometry>
        </mxCell>
        <mxCell id="yEuS01cdQiujWkr5JIMt-45" value="owns" style="endArrow=none;endFill=0;html=1;edgeStyle=orthogonalEdgeStyle;align=left;verticalAlign=top;rounded=0;exitX=0.75;exitY=1;exitDx=0;exitDy=0;entryX=0.5;entryY=0;entryDx=0;entryDy=0;" parent="1" source="yEuS01cdQiujWkr5JIMt-39" target="yEuS01cdQiujWkr5JIMt-40" edge="1">
          <mxGeometry x="-0.0093" relative="1" as="geometry">
            <mxPoint x="340" y="590" as="sourcePoint" />
            <mxPoint x="500" y="590" as="targetPoint" />
            <Array as="points">
              <mxPoint x="415" y="530" />
              <mxPoint x="590" y="530" />
            </Array>
            <mxPoint as="offset" />
          </mxGeometry>
        </mxCell>
        <mxCell id="yEuS01cdQiujWkr5JIMt-46" value="1..1" style="edgeLabel;resizable=0;html=1;align=left;verticalAlign=bottom;" parent="yEuS01cdQiujWkr5JIMt-45" connectable="0" vertex="1">
          <mxGeometry x="-1" relative="1" as="geometry">
            <mxPoint x="5" y="20" as="offset" />
          </mxGeometry>
        </mxCell>
        <mxCell id="yEuS01cdQiujWkr5JIMt-47" value="admin" style="text;html=1;strokeColor=default;fillColor=none;align=center;verticalAlign=middle;whiteSpace=wrap;rounded=0;" parent="1" vertex="1">
          <mxGeometry x="430" y="430" width="60" height="30" as="geometry" />
        </mxCell>
        <mxCell id="cUwZlc2v0SPjmF6HoBKG-1" value="guilds" style="text;html=1;strokeColor=none;fillColor=none;align=center;verticalAlign=middle;whiteSpace=wrap;rounded=0;" parent="1" vertex="1">
          <mxGeometry x="-200" y="270" width="60" height="30" as="geometry" />
        </mxCell>
        <mxCell id="cUwZlc2v0SPjmF6HoBKG-2" value="guild_id" style="text;html=1;strokeColor=default;fillColor=none;align=center;verticalAlign=middle;whiteSpace=wrap;rounded=0;" parent="1" vertex="1">
          <mxGeometry x="-140" y="270" width="60" height="30" as="geometry" />
        </mxCell>
        <mxCell id="cUwZlc2v0SPjmF6HoBKG-3" value="PK" style="text;html=1;strokeColor=#d6b656;fillColor=#fff2cc;align=center;verticalAlign=middle;whiteSpace=wrap;rounded=0;" parent="1" vertex="1">
          <mxGeometry x="-140" y="300" width="60" height="30" as="geometry" />
        </mxCell>
        <mxCell id="cUwZlc2v0SPjmF6HoBKG-4" value="notification_channel" style="text;html=1;strokeColor=none;fillColor=none;align=center;verticalAlign=middle;whiteSpace=wrap;rounded=0;" parent="1" vertex="1">
          <mxGeometry x="-260" y="430" width="120" height="30" as="geometry" />
        </mxCell>
        <mxCell id="cUwZlc2v0SPjmF6HoBKG-5" value="guild_id" style="text;html=1;strokeColor=default;fillColor=none;align=center;verticalAlign=middle;whiteSpace=wrap;rounded=0;" parent="1" vertex="1">
          <mxGeometry x="-140" y="430" width="60" height="30" as="geometry" />
        </mxCell>
        <mxCell id="cUwZlc2v0SPjmF6HoBKG-6" value="PK" style="text;html=1;strokeColor=#d6b656;fillColor=#fff2cc;align=center;verticalAlign=middle;whiteSpace=wrap;rounded=0;" parent="1" vertex="1">
          <mxGeometry x="-140" y="460" width="160" height="30" as="geometry" />
        </mxCell>
        <mxCell id="cUwZlc2v0SPjmF6HoBKG-7" value="notification_type" style="text;html=1;strokeColor=default;fillColor=none;align=center;verticalAlign=middle;whiteSpace=wrap;rounded=0;" parent="1" vertex="1">
          <mxGeometry x="-80" y="430" width="100" height="30" as="geometry" />
        </mxCell>
        <mxCell id="cUwZlc2v0SPjmF6HoBKG-8" value="FK" style="text;html=1;strokeColor=#6c8ebf;fillColor=#dae8fc;align=center;verticalAlign=middle;whiteSpace=wrap;rounded=0;" parent="1" vertex="1">
          <mxGeometry x="-140" y="400" width="60" height="30" as="geometry" />
        </mxCell>
        <mxCell id="cUwZlc2v0SPjmF6HoBKG-9" value="name" style="endArrow=none;endFill=0;html=1;edgeStyle=orthogonalEdgeStyle;align=left;verticalAlign=top;rounded=0;entryX=0.5;entryY=0;entryDx=0;entryDy=0;" parent="1" target="cUwZlc2v0SPjmF6HoBKG-8" edge="1">
          <mxGeometry x="-0.4367" y="-10" relative="1" as="geometry">
            <mxPoint x="-110" y="330" as="sourcePoint" />
            <mxPoint x="-10" y="330" as="targetPoint" />
            <mxPoint as="offset" />
          </mxGeometry>
        </mxCell>
        <mxCell id="cUwZlc2v0SPjmF6HoBKG-10" value="1..1" style="edgeLabel;resizable=0;html=1;align=left;verticalAlign=bottom;" parent="cUwZlc2v0SPjmF6HoBKG-9" connectable="0" vertex="1">
          <mxGeometry x="-1" relative="1" as="geometry">
            <mxPoint y="20" as="offset" />
          </mxGeometry>
        </mxCell>
        <mxCell id="IFU8dTkJ_wJtPLW0d5BC-1" value="notification_member" style="text;html=1;strokeColor=none;fillColor=none;align=center;verticalAlign=middle;whiteSpace=wrap;rounded=0;" parent="1" vertex="1">
          <mxGeometry x="-260" y="640" width="120" height="30" as="geometry" />
        </mxCell>
        <mxCell id="IFU8dTkJ_wJtPLW0d5BC-3" value="channel_id" style="text;html=1;strokeColor=default;fillColor=none;align=center;verticalAlign=middle;whiteSpace=wrap;rounded=0;" parent="1" vertex="1">
          <mxGeometry x="20" y="430" width="70" height="30" as="geometry" />
        </mxCell>
        <mxCell id="IFU8dTkJ_wJtPLW0d5BC-5" value="toggle" style="text;html=1;strokeColor=default;fillColor=none;align=center;verticalAlign=middle;whiteSpace=wrap;rounded=0;" parent="1" vertex="1">
          <mxGeometry x="80" y="640" width="60" height="30" as="geometry" />
        </mxCell>
        <mxCell id="IFU8dTkJ_wJtPLW0d5BC-6" value="guild_id" style="text;html=1;strokeColor=default;fillColor=none;align=center;verticalAlign=middle;whiteSpace=wrap;rounded=0;" parent="1" vertex="1">
          <mxGeometry x="-140" y="640" width="60" height="30" as="geometry" />
        </mxCell>
        <mxCell id="IFU8dTkJ_wJtPLW0d5BC-7" value="notification_type" style="text;html=1;strokeColor=default;fillColor=none;align=center;verticalAlign=middle;whiteSpace=wrap;rounded=0;" parent="1" vertex="1">
          <mxGeometry x="-80" y="640" width="100" height="30" as="geometry" />
        </mxCell>
        <mxCell id="IFU8dTkJ_wJtPLW0d5BC-8" value="FK" style="text;html=1;strokeColor=#6c8ebf;fillColor=#dae8fc;align=center;verticalAlign=middle;whiteSpace=wrap;rounded=0;" parent="1" vertex="1">
          <mxGeometry x="20" y="580" width="60" height="30" as="geometry" />
        </mxCell>
        <mxCell id="IFU8dTkJ_wJtPLW0d5BC-9" value="Foreign Key" style="text;html=1;strokeColor=#6c8ebf;fillColor=#dae8fc;align=center;verticalAlign=middle;whiteSpace=wrap;rounded=0;" parent="1" vertex="1">
          <mxGeometry x="-140" y="610" width="160" height="30" as="geometry" />
        </mxCell>
        <mxCell id="IFU8dTkJ_wJtPLW0d5BC-10" value="PK" style="text;html=1;strokeColor=#d6b656;fillColor=#fff2cc;align=center;verticalAlign=middle;whiteSpace=wrap;rounded=0;" parent="1" vertex="1">
          <mxGeometry x="-140" y="670" width="220" height="30" as="geometry" />
        </mxCell>
        <mxCell id="IFU8dTkJ_wJtPLW0d5BC-13" value="notifies" style="endArrow=none;endFill=0;html=1;edgeStyle=orthogonalEdgeStyle;align=left;verticalAlign=top;rounded=0;entryX=0.5;entryY=0;entryDx=0;entryDy=0;exitX=0.5;exitY=1;exitDx=0;exitDy=0;" parent="1" source="cUwZlc2v0SPjmF6HoBKG-6" target="IFU8dTkJ_wJtPLW0d5BC-9" edge="1">
          <mxGeometry x="-0.0833" y="10" relative="1" as="geometry">
            <mxPoint x="-30" y="530" as="sourcePoint" />
            <mxPoint x="320" y="530" as="targetPoint" />
            <mxPoint as="offset" />
          </mxGeometry>
        </mxCell>
        <mxCell id="IFU8dTkJ_wJtPLW0d5BC-14" value="1..1" style="edgeLabel;resizable=0;html=1;align=left;verticalAlign=bottom;" parent="IFU8dTkJ_wJtPLW0d5BC-13" connectable="0" vertex="1">
          <mxGeometry x="-1" relative="1" as="geometry">
            <mxPoint x="-20" y="20" as="offset" />
          </mxGeometry>
        </mxCell>
        <mxCell id="IFU8dTkJ_wJtPLW0d5BC-15" value="belongs to" style="endArrow=none;endFill=0;html=1;edgeStyle=orthogonalEdgeStyle;align=left;verticalAlign=top;rounded=0;exitX=0;exitY=0.5;exitDx=0;exitDy=0;entryX=0.5;entryY=0;entryDx=0;entryDy=0;" parent="1" source="yEuS01cdQiujWkr5JIMt-39" target="IFU8dTkJ_wJtPLW0d5BC-8" edge="1">
          <mxGeometry x="-0.1475" y="-15" relative="1" as="geometry">
            <mxPoint x="150" y="590" as="sourcePoint" />
            <mxPoint x="310" y="590" as="targetPoint" />
            <mxPoint as="offset" />
            <Array as="points">
              <mxPoint x="370" y="530" />
              <mxPoint x="50" y="530" />
            </Array>
          </mxGeometry>
        </mxCell>
        <mxCell id="IFU8dTkJ_wJtPLW0d5BC-16" value="1..1" style="edgeLabel;resizable=0;html=1;align=left;verticalAlign=bottom;" parent="IFU8dTkJ_wJtPLW0d5BC-15" connectable="0" vertex="1">
          <mxGeometry x="-1" relative="1" as="geometry">
            <mxPoint x="-20" as="offset" />
          </mxGeometry>
        </mxCell>
        <mxCell id="IFU8dTkJ_wJtPLW0d5BC-17" value="0..*" style="edgeLabel;resizable=0;html=1;align=left;verticalAlign=bottom;" parent="1" connectable="0" vertex="1">
          <mxGeometry x="50" y="580" as="geometry" />
        </mxCell>
        <mxCell id="IFU8dTkJ_wJtPLW0d5BC-18" value="0..*" style="edgeLabel;resizable=0;html=1;align=left;verticalAlign=bottom;" parent="1" connectable="0" vertex="1">
          <mxGeometry x="-80" y="610" as="geometry" />
        </mxCell>
        <mxCell id="IFU8dTkJ_wJtPLW0d5BC-20" value="0..1" style="edgeLabel;resizable=0;html=1;align=left;verticalAlign=bottom;" parent="1" connectable="0" vertex="1">
          <mxGeometry x="590" y="610" as="geometry" />
        </mxCell>
        <mxCell id="IFU8dTkJ_wJtPLW0d5BC-21" value="0..*" style="edgeLabel;resizable=0;html=1;align=left;verticalAlign=bottom;" parent="1" connectable="0" vertex="1">
          <mxGeometry x="212.5" y="970" as="geometry" />
        </mxCell>
        <mxCell id="IFU8dTkJ_wJtPLW0d5BC-22" value="0..*" style="edgeLabel;resizable=0;html=1;align=left;verticalAlign=bottom;" parent="1" connectable="0" vertex="1">
          <mxGeometry x="-110" y="400" as="geometry" />
        </mxCell>
        <mxCell id="iIigaT8et2meBuaXNvI_-1" value="discord_id" style="text;html=1;strokeColor=default;fillColor=none;align=center;verticalAlign=middle;whiteSpace=wrap;rounded=0;" parent="1" vertex="1">
          <mxGeometry x="20" y="640" width="60" height="30" as="geometry" />
        </mxCell>
        <mxCell id="xnvNQHVsTAZZ_-OnzUZo-3" value="PK" style="text;html=1;strokeColor=#d6b656;fillColor=#fff2cc;align=center;verticalAlign=middle;whiteSpace=wrap;rounded=0;" parent="1" vertex="1">
          <mxGeometry x="270" y="670" width="60" height="30" as="geometry" />
        </mxCell>
        <mxCell id="xnvNQHVsTAZZ_-OnzUZo-4" value="riot_accounts" style="text;html=1;strokeColor=none;fillColor=none;align=center;verticalAlign=middle;whiteSpace=wrap;rounded=0;" parent="1" vertex="1">
          <mxGeometry x="190" y="640" width="80" height="30" as="geometry" />
        </mxCell>
        <mxCell id="xnvNQHVsTAZZ_-OnzUZo-6" value="FK" style="text;html=1;strokeColor=#6c8ebf;fillColor=#dae8fc;align=center;verticalAlign=middle;whiteSpace=wrap;rounded=0;" parent="1" vertex="1">
          <mxGeometry x="270" y="610" width="60" height="30" as="geometry" />
        </mxCell>
        <mxCell id="xnvNQHVsTAZZ_-OnzUZo-10" value="0..*" style="edgeLabel;resizable=0;html=1;align=left;verticalAlign=bottom;" parent="1" connectable="0" vertex="1">
          <mxGeometry x="300" y="610" as="geometry" />
        </mxCell>
        <mxCell id="5MEaZwO4ZG2JFWSFO3G8-1" value="discord_id" style="text;html=1;strokeColor=default;fillColor=none;align=center;verticalAlign=middle;whiteSpace=wrap;rounded=0;" parent="1" vertex="1">
          <mxGeometry x="270" y="640" width="60" height="30" as="geometry" />
        </mxCell>
        <mxCell id="5MEaZwO4ZG2JFWSFO3G8-3" value="Candidate Key" style="text;html=1;align=center;verticalAlign=middle;whiteSpace=wrap;rounded=0;fillColor=default;strokeColor=default;" parent="1" vertex="1">
          <mxGeometry x="270" y="860" width="60" height="30" as="geometry" />
        </mxCell>
        <mxCell id="5MEaZwO4ZG2JFWSFO3G8-5" value="gametype" style="text;html=1;strokeColor=default;fillColor=none;align=center;verticalAlign=middle;whiteSpace=wrap;rounded=0;" parent="1" vertex="1">
          <mxGeometry x="210" y="1000" width="60" height="30" as="geometry" />
        </mxCell>
        <mxCell id="p1s2ygTlfaNwDJSVveeb-1" value="timestamps" style="text;html=1;strokeColor=none;fillColor=none;align=center;verticalAlign=middle;whiteSpace=wrap;rounded=0;" parent="1" vertex="1">
          <mxGeometry x="600" y="760" width="80" height="30" as="geometry" />
        </mxCell>
        <mxCell id="p1s2ygTlfaNwDJSVveeb-2" value="name" style="text;html=1;strokeColor=default;fillColor=none;align=center;verticalAlign=middle;whiteSpace=wrap;rounded=0;" parent="1" vertex="1">
          <mxGeometry x="680" y="760" width="60" height="30" as="geometry" />
        </mxCell>
        <mxCell id="p1s2ygTlfaNwDJSVveeb-3" value="PK" style="text;html=1;strokeColor=#d6b656;fillColor=#fff2cc;align=center;verticalAlign=middle;whiteSpace=wrap;rounded=0;" parent="1" vertex="1">
          <mxGeometry x="680" y="790" width="60" height="30" as="geometry" />
        </mxCell>
        <mxCell id="p1s2ygTlfaNwDJSVveeb-6" value="unix_time" style="text;html=1;strokeColor=default;fillColor=none;align=center;verticalAlign=middle;whiteSpace=wrap;rounded=0;" parent="1" vertex="1">
          <mxGeometry x="740" y="760" width="60" height="30" as="geometry" />
        </mxCell>
        <mxCell id="p1s2ygTlfaNwDJSVveeb-8" value="birth_month" style="text;html=1;strokeColor=default;fillColor=none;align=center;verticalAlign=middle;whiteSpace=wrap;rounded=0;" parent="1" vertex="1">
          <mxGeometry x="490" y="430" width="70" height="30" as="geometry" />
        </mxCell>
        <mxCell id="p1s2ygTlfaNwDJSVveeb-9" value="birth_day" style="text;html=1;strokeColor=default;fillColor=none;align=center;verticalAlign=middle;whiteSpace=wrap;rounded=0;" parent="1" vertex="1">
          <mxGeometry x="560" y="430" width="60" height="30" as="geometry" />
        </mxCell>
        <mxCell id="tPqPA55Yj1uC4LS8ASsd-1" value="riot_tag" style="text;html=1;strokeColor=default;fillColor=none;align=center;verticalAlign=middle;whiteSpace=wrap;rounded=0;" parent="1" vertex="1">
          <mxGeometry x="390" y="640" width="50" height="30" as="geometry" />
        </mxCell>
        <mxCell id="qL5zQdkKpjcGRkti5oC4-3" value="PK" style="text;html=1;strokeColor=#d6b656;fillColor=#fff2cc;align=center;verticalAlign=middle;whiteSpace=wrap;rounded=0;" parent="1" vertex="1">
          <mxGeometry x="150" y="830" width="120" height="30" as="geometry" />
        </mxCell>
        <mxCell id="qL5zQdkKpjcGRkti5oC4-4" value="puuids" style="text;html=1;strokeColor=none;fillColor=none;align=center;verticalAlign=middle;whiteSpace=wrap;rounded=0;" parent="1" vertex="1">
          <mxGeometry x="70" y="800" width="80" height="30" as="geometry" />
        </mxCell>
        <mxCell id="qL5zQdkKpjcGRkti5oC4-5" value="FK" style="text;html=1;strokeColor=#6c8ebf;fillColor=#dae8fc;align=center;verticalAlign=middle;whiteSpace=wrap;rounded=0;" parent="1" vertex="1">
          <mxGeometry x="270" y="770" width="60" height="30" as="geometry" />
        </mxCell>
        <mxCell id="qL5zQdkKpjcGRkti5oC4-6" value="discord_id" style="text;html=1;strokeColor=default;fillColor=none;align=center;verticalAlign=middle;whiteSpace=wrap;rounded=0;" parent="1" vertex="1">
          <mxGeometry x="270" y="800" width="60" height="30" as="geometry" />
        </mxCell>
        <mxCell id="qL5zQdkKpjcGRkti5oC4-10" value="gametype" style="text;html=1;strokeColor=default;fillColor=none;align=center;verticalAlign=middle;whiteSpace=wrap;rounded=0;" parent="1" vertex="1">
          <mxGeometry x="210" y="800" width="60" height="30" as="geometry" />
        </mxCell>
        <mxCell id="qL5zQdkKpjcGRkti5oC4-11" value="puuid" style="text;html=1;strokeColor=default;fillColor=none;align=center;verticalAlign=middle;whiteSpace=wrap;rounded=0;" parent="1" vertex="1">
          <mxGeometry x="150" y="800" width="60" height="30" as="geometry" />
        </mxCell>
        <mxCell id="qL5zQdkKpjcGRkti5oC4-12" value="possesses" style="endArrow=none;endFill=0;html=1;edgeStyle=orthogonalEdgeStyle;align=left;verticalAlign=top;rounded=0;exitX=0.5;exitY=1;exitDx=0;exitDy=0;entryX=0.5;entryY=0;entryDx=0;entryDy=0;" parent="1" source="xnvNQHVsTAZZ_-OnzUZo-3" target="qL5zQdkKpjcGRkti5oC4-5" edge="1">
          <mxGeometry x="-0.1429" relative="1" as="geometry">
            <mxPoint x="390" y="830" as="sourcePoint" />
            <mxPoint x="550" y="830" as="targetPoint" />
            <mxPoint as="offset" />
          </mxGeometry>
        </mxCell>
        <mxCell id="qL5zQdkKpjcGRkti5oC4-13" value="1..1" style="edgeLabel;resizable=0;html=1;align=left;verticalAlign=bottom;" parent="qL5zQdkKpjcGRkti5oC4-12" connectable="0" vertex="1">
          <mxGeometry x="-1" relative="1" as="geometry">
            <mxPoint x="-25" y="20" as="offset" />
          </mxGeometry>
        </mxCell>
        <mxCell id="Y3RyfiKYdjzEDEa1krA5-1" value="summoner_id" style="text;html=1;strokeColor=default;fillColor=none;align=center;verticalAlign=middle;whiteSpace=wrap;rounded=0;" vertex="1" parent="1">
          <mxGeometry x="330" y="800" width="80" height="30" as="geometry" />
        </mxCell>
      </root>
    </mxGraphModel>
  </diagram>
</mxfile>
